<svg xmlns="http://www.w3.org/2000/svg" width="179" height="141" fill="none" viewBox="0 0 179 141">
    <g clip-path="url(#clip0)">
        <path fill="#425AF2" d="M24.72 22.864c-3.057 7.731-3.593 16.175-5.159 24.336-1.82 9.474-5.022 18.628-9.504 27.169C6.9 80.38 3.086 86.147 1.26 92.685c-1.574 5.633-1.588 11.639-.517 17.389 1.292 6.893 4.091 13.415 8.197 19.098 2.224 3.061 4.926 5.956 8.398 7.481 2.563 1.113 5.395 1.45 8.178 1.737 37.377 3.849 75.07 3.44 112.355-1.219 4.837-.604 9.729-1.297 14.235-3.154 6.524-2.685 11.822-7.623 16.957-12.46 3.191-2.997 6.463-6.109 8.244-10.111 2.686-6.026 1.538-13.125-.992-19.204-2.53-6.078-6.341-11.564-9.173-17.52-3.737-7.899-5.698-16.522-5.743-25.262-.036-7.317 1.234-14.91-1.301-21.773-2.652-7.175-9.059-12.293-15.731-16.023-10.86-6.053-23.02-9.39-35.444-9.727-17.69-.462-34.906 5.127-52.585 4.815-14.469-.256-25.349.187-31.617 16.112z" opacity=".24"/>
        <path fill="#425AF2" d="M24.862 22.864c-3.04 7.731-3.594 16.175-5.156 24.336-1.82 9.474-5.023 18.629-9.507 27.169C7.044 80.38 3.23 86.147 1.404 92.685-.17 98.318-.184 104.324.887 110.074c1.29 6.893 4.089 13.415 8.194 19.098 2.224 3.061 4.929 5.956 8.4 7.481 2.564 1.113 5.394 1.45 8.179 1.737 37.377 3.849 75.07 3.44 112.355-1.219 4.837-.604 9.729-1.297 14.232-3.154 6.527-2.685 11.826-7.623 16.957-12.46 3.191-2.997 6.463-6.109 8.245-10.111 2.685-6.026 1.537-13.125-.993-19.204-2.529-6.078-6.34-11.564-9.173-17.52-3.74-7.894-5.705-16.514-5.757-25.251-.036-7.317 1.237-14.91-1.298-21.773-2.652-7.175-9.059-12.293-15.73-16.022-10.856-6.055-23.01-9.396-35.431-9.739-17.69-.462-34.906 5.127-52.585 4.815-14.477-.256-25.351.187-31.62 16.112z" opacity=".24"/>
        <path fill="#425AF2" d="M94.075 126.169c39.965 0 72.363-2.754 72.363-6.151s-32.398-6.151-72.363-6.151c-39.965 0-72.362 2.754-72.362 6.151s32.397 6.151 72.362 6.151z" opacity=".46"/>
        <path fill="#425AF2" d="M143.274 28.17H47.181v91.235h96.093V28.171z" opacity=".24"/>
        <path fill="#fff" d="M139.819 27.882H43.726v91.234h96.093V27.882z"/>
        <path fill="#425AF2" d="M135.344 42.763h-87.24v59.459h87.24v-59.46z"/>
        <path fill="#425AF2" d="M152.428 60.96c0 5.588-5.81 10.11-12.973 10.11-1.203.005-2.402-.129-3.575-.397l-5.66 2.9 2.269-4.1c-3.614-1.78-6.007-4.92-6.007-8.513 0-5.589 5.809-10.114 12.97-10.114 7.161 0 12.976 4.525 12.976 10.114z"/>
        <path fill="url(#paint0_linear)" d="M150.836 60.814c0 5.589-5.807 10.111-12.97 10.111-1.203.006-2.403-.127-3.575-.398l-5.663 2.9 2.274-4.096c-3.613-1.784-6.007-4.924-6.007-8.517 0-5.588 5.807-10.114 12.971-10.114 7.163 0 12.97 4.526 12.97 10.114z"/>
        <path fill="#425AF2" d="M52.944 66.147v11.798c0 .648-.128 1.29-.376 1.89-.248.598-.61 1.142-1.069 1.6-.458.459-1.001.822-1.6 1.07-.598.248-1.24.375-1.887.375h-.883v5.188l-2.691-5.188H23.98c-.647 0-1.288-.128-1.886-.376-.598-.248-1.141-.611-1.599-1.07-.457-.458-.82-1.002-1.068-1.6-.248-.6-.375-1.24-.375-1.889V66.147c0-.648.127-1.29.374-1.888.248-.6.61-1.143 1.069-1.602.457-.458 1-.821 1.599-1.07.598-.247 1.24-.375 1.886-.374h24.031c.648 0 1.29.127 1.887.375.599.248 1.142.61 1.6 1.07.458.457.821 1.002 1.07 1.6.247.6.375 1.241.375 1.89z"/>
        <path fill="url(#paint1_linear)" d="M52.944 66.147v11.798c0 .648-.128 1.29-.376 1.89-.248.598-.61 1.142-1.069 1.6-.458.459-1.001.822-1.6 1.07-.598.248-1.24.375-1.887.375h-.883v5.188l-2.691-5.188H23.98c-.647 0-1.288-.128-1.886-.376-.598-.248-1.141-.611-1.599-1.07-.457-.458-.82-1.002-1.068-1.6-.248-.6-.375-1.24-.375-1.889V66.147c0-.648.127-1.29.374-1.888.248-.6.61-1.143 1.069-1.602.457-.458 1-.821 1.599-1.07.598-.247 1.24-.375 1.886-.374h24.031c.648 0 1.29.127 1.887.375.599.248 1.142.61 1.6 1.07.458.457.821 1.002 1.07 1.6.247.6.375 1.241.375 1.89z"/>
        <path fill="#425AF2" d="M48.574 65.496H23.323v1.414h25.25v-1.414zM48.574 69.226H23.323v1.413h25.25v-1.413zM48.574 72.955H23.323v1.414h25.25v-1.414z"/>
        <path fill="#425AF2" d="M54.656 106.222s-2.305-3.028-4.465-.145c-2.16 2.884 4.895 6.343 4.895 6.343s5.04-3.618 4.462-5.767c-.578-2.148-3.736-2.738-4.892-.431z" opacity=".24"/>
        <path fill="#425AF2" d="M54.656 106.222s-2.305-3.028-4.465-.145c-2.16 2.884 4.895 6.343 4.895 6.343s5.04-3.618 4.462-5.767c-.578-2.148-3.736-2.738-4.892-.431z" opacity=".24"/>
        <path fill="#fff" d="M115.844 74.647s-2.304-3.028-4.464-.145c-2.16 2.884 4.895 6.343 4.895 6.343s5.04-3.604 4.461-5.767c-.578-2.162-3.741-2.73-4.892-.431z"/>
        <path fill="#425AF2" d="M70.24 108.34c0 1.893-1.966 3.421-4.387 3.421-.407.002-.813-.043-1.21-.134l-1.926.98.767-1.392c-1.223-.601-2.032-1.67-2.032-2.88 0-1.89 1.966-3.418 4.39-3.418 2.424 0 4.397 1.534 4.397 3.423zM71.353 107.983l7.197-2.452-4.895 4.47-2.302-2.018zM74.017 110.266l4.678-4.539-3.024 6.771-1.654-2.232zM54.08 40.984c2.744 0 4.968-2.227 4.968-4.973 0-2.747-2.224-4.974-4.968-4.974-2.743 0-4.967 2.227-4.967 4.974 0 2.746 2.224 4.973 4.967 4.973z" opacity=".24"/>
        <path fill="url(#paint2_linear)" d="M119.368 35.86c-.028.493-.053 1.033.245 1.426.778-.465 1.012-1.47 1.112-2.369.194-1.783.144-3.585-.148-5.355-.032-.285-.116-.562-.247-.818-.249-.366-.603-.648-1.015-.81-.247-.137-.524-.21-.806-.211-.14.003-.277.049-.39.132-.113.083-.198.2-.244.332-.024.173-.004.35.059.512.127.6.33 1.18.606 1.726.278.439.484.92.609 1.425.285 1.317.359 2.67.219 4.01z"/>
        <path fill="url(#paint3_linear)" d="M108.75 29.36c.576.444 1.329.584 2.055.634.264.016.533.025.8.036.374.016.728.171.994.435.265.265.422.618.44.993.023.556.034 1.113.034 1.67 0 1.33-.047 2.719.536 3.913.123.25.32.515.598.52.149-.01.291-.068.403-.167.354-.298.6-.705.698-1.158.097-.45.137-.911.119-1.372 0-1.762-.153-3.557-.834-5.182-.078-.185-.171-.364-.278-.534-.45-.65-1.131-1.105-1.904-1.27-.765-.16-1.551-.201-2.329-.122-.37.025-.742.056-1.112.075-.209 0-.984-.106-1.129 0-.294.253.69 1.355.909 1.528z"/>
        <path fill="#606161" d="M124.185 28.472c.081 1.75-2.154 10.462-2.64 10.787-.406.279-1.137-.094-1.554-.348-.081-.058-.139-.105-.198-.139-.322-.245.198-6.935.198-6.935s.164-2.274-1.424-3.596c-1.773-1.473-3.799-2.83-3.66-3.874.012-.157.077-.304.186-.418.889-1.066 2.919-2.688 3.983-1.9l3.105 2.468c.002.007.002.015 0 .022.022.025.059.07.117.128.081.106.208.256.347.429.376.52.712 1.067 1.007 1.636.287.54.468 1.131.533 1.74z"/>
        <path fill="url(#paint4_linear)" d="M119.749 27.186c.459.735.52.45.857 2.12.336 1.67 0 8.573-.37 9.302-.058.118-.142.222-.245.303-.08-.058-.139-.105-.197-.139-.323-.245.197-6.935.197-6.935s.164-2.274-1.423-3.596c0 0 .242-1.509-.859-2.366-.87-.613-1.811-1.12-2.802-1.509.128-.047 2.038-2.31 3.811-2.226 1.61.07-1.176 1.5 1.031 5.046z"/>
        <path fill="#606161" d="M117.259 38.597c-.182.526-.483 1.003-.881 1.392-.428.359-1.076.509-1.54.22-.556-.337-.651-1.055-.706-1.67-.187-2.18-.198-5.973-.384-8.152-.019-.245-.13-.474-.311-.64-.278-.214-.591-.375-.926-.476-.659-.22-1.482-.393-2.096-.8-.216-.137-.405-.314-.556-.522-1.09-1.495-1.495-4.534-.592-5.984.12-.22.291-.41.498-.551.207-.141.446-.231.695-.262 1.576-.197 4.414.835 5.075 2.263.209.465.301.974.601 1.392.522.729 1.554.951 2.062 1.692.232.39.375.826.417 1.277.565 3.663.095 7.411-1.356 10.821z"/>
        <path fill="url(#paint5_linear)" d="M113.726 29.215c.047.106.07.223.065.34-.004.116-.035.23-.09.333-.092-.047-.173-.106-.278-.153-.301-.161-.612-.325-.926-.476-.439-.197-.903-.381-1.368-.556-.241-.081-.486-.162-.728-.254-.217-.137-.405-.315-.556-.523-1.09-1.494-1.495-4.534-.592-5.984.881.059 1.737.465 2.538.835.475.234.948.454 1.39.721.3.173.914.429.439.765-.648.451-1.887-.347-2.385.382-.095.17-.143.362-.139.556-.025.279-.047.557-.069.858-.032.255-.017.515.044.765.141.318.376.585.673.765.541.331 1.063.692 1.565 1.08.173.153.314.339.417.546z"/>
        <path fill="#606161" d="M114.765 42.79c.193.193.411.357.648.488l1.012.632c.364.225.834.45 1.19.195.355-.256.278-.702.161-1.07-.18-.542-.496-1.03-.917-1.416-.09-.069-.165-.155-.22-.253-.04-.105-.055-.217-.045-.328v-1.044c0-1.058-1.451-.868-1.909-.242-.559.77-.578 2.332.08 3.039zM119.838 41.491c.251.39.617.69 1.048.86.413.196.843.355 1.284.473.09.038.187.054.284.046.097-.008.191-.04.272-.093.07-.078.116-.175.134-.279.073-.33.065-.673-.023-1-.089-.325-.256-.625-.486-.873-.208-.18-.395-.383-.556-.606-.197-.348-.156-.774-.192-1.172-.078-.874-1.467-.646-1.804-.08-.336.564-.258 2.176.039 2.724z"/>
        <path fill="#425AF2" d="M108.925 21.099c-.024.355.061.71.245 1.016.189.213.425.38.689.487 1.29.648 2.602 1.305 4.019 1.572 1.418.267 2.983.103 4.131-.77.418-.294.734-.71.906-1.192.184-.587.059-1.219.028-1.834-.08-1.528.431-3.017.787-4.509.356-1.492.556-3.125-.131-4.5-.531-1.083.612-1.99-.395-2.65-1.417-.932-3.082-1.391-5.406-1.035-.898.134-3.97 1.392-4.3 2.243-.331.852.636 1.712.525 2.616-.353 2.823-1.098 5.734-1.098 8.556z"/>
        <path fill="#425AF2" d="M122.626 16.384c.278.637.512 1.43.072 1.948-.162.17-.365.293-.59.359-.225.065-.464.07-.691.014-.45-.122-.882-.302-1.284-.537-.265-.106-.503-.27-.695-.482-.262-.342-.231-.815-.214-1.247.072-2.131-.534-4.219-.498-6.348 0-.32-.092-1.03.306-1.163.442-.148.572.537.706.835.459 1.018.914 2.04 1.359 3.061.521 1.182 1.031 2.369 1.529 3.56z"/>
        <path fill="#606161" d="M119.174 15.482l.815-2.17c.066-.174.19-.32.351-.41.162-.092.35-.124.533-.092l1.434.254c.111.018.216.06.309.123s.171.145.23.241.096.203.11.314c.014.112.004.225-.029.332l-1.154 3.657c-.062.197-.2.362-.382.459-.182.097-.395.12-.593.061l-1.468-.417c-.1-.026-.194-.072-.277-.135-.082-.063-.151-.141-.203-.231-.052-.09-.085-.19-.098-.292-.013-.103-.006-.208.022-.308l.372-1.322c0-.02.02-.041.028-.064z"/>
        <path fill="url(#paint6_linear)" d="M110.763 21.355c.027-.05.067-.093.116-.123.073-.028.152-.036.228-.022.443.04.889.04 1.332 0 .139 0 7.01-2.636 6.566-2.867-.217-.111-3.433-.593-5.643-1.72-1.885-.957-2.752-2.713-3.497-1.547-.192.3-.684 4.289-.804 4.622-.022.078-.033.159-.033.24l-.05 1.013c-.052.377-.006.76.136 1.113.234.454.745.682 1.218.874.14.074.301.097.456.067-.231-.537-.373-1.108-.025-1.65z"/>
        <path fill="#425AF2" d="M114.226 22.168l2.86.02s-.603.999-1.111 1.052l-1.749-1.072zM108.285 13.05c.087 1.435.328 2.856.72 4.239.278.977.673 1.992 1.496 2.585.747.488 1.653.668 2.53.501.866-.168 1.707-.449 2.501-.835l2.455-1.063c.196-.07.374-.183.522-.328.417-.476-.016-1.275-.611-1.495-.595-.22-1.248-.083-1.882-.086-.701 0-2.04.403-2.655.067-.121-.053-.224-.141-.294-.254-.054-.127-.072-.266-.053-.403.061-1.876-.195-4.815-1.829-5.878-2.007-1.3-2.997 1.333-2.9 2.95z"/>
        <path fill="#F4A982" d="M114.977 10.576c.265.142.566.203.866.176.3-.027.585-.14.821-.326.222-.198.368-.467.414-.76.125-.835-.575-1.603-.514-2.441.031-.418.248-.835.1-1.236-.125-.334-1.987-.876-2.057-.526-.464 2.477-1.659 4.097.37 5.113z"/>
        <path fill="url(#paint7_linear)" d="M114.879 5.586s-.181 3.635 1.765 3.379c0 0 .306-.042.214-.49s-.47-.91-.447-1.308c.022-.398-1.532-1.581-1.532-1.581z"/>
        <path fill="#F4A982" d="M119.755 3.33c-.026.423-.139.837-.331 1.215-.25.6-.543 1.182-.875 1.74-.255.487-.606.917-1.032 1.263-.218.167-.475.275-.747.316-.271.04-.549.013-.807-.082-.461-.197-.753-.662-.973-1.113-.342-.724-.509-1.52-.486-2.321.033-.599.178-1.447.706-1.818.123-.085.27-.133.42-.136.194 0 .342.125.52.142.136-.01.271-.04.4-.086.161-.03.322-.053.486-.07.316-.026.633-.026.948 0 .265.02.528.06.787.12.248.041.484.136.692.278.086.065.157.148.208.243.05.095.079.2.084.308zM120.814 15.049c.39.109.731.346.97.674.053.055.093.123.116.197.018.095.003.194-.044.278-.32.668-1.251.735-1.796 1.236-.123.137-.254.267-.392.39-.197.136-.42.231-.656.278-.242.061-.489.111-.734.153-.6.1-.903-.495-.861-1.027.036-.476.278-.648.675-.835.831-.417 1.729-1.544 2.722-1.344z"/>
        <path fill="#F4A982" d="M114.537 3.654c-.049-.022-.102-.033-.156-.03-.042.008-.081.026-.115.053s-.061.06-.079.1c-.033.079-.049.164-.048.25-.003.127.009.254.037.378.016.117.063.227.137.318.074.091.172.16.282.2.101.017.205-.003.293-.056.087-.054.152-.138.183-.236.022-.198-.017-.398-.112-.573-.096-.175-.243-.316-.422-.404z"/>
        <path fill="url(#paint8_linear)" d="M114.646 4.303c-.036-.064 0-.145 0-.22 0-.075-.1-.14-.203-.19l-.02.01c-.005.006-.01.012-.013.018-.042.073-.068.154-.076.237-.009.084.001.168.028.248.015.06.044.115.084.161.02.023.046.04.076.052.029.01.06.014.091.01.037-.013.071-.034.098-.063.026-.028.045-.064.054-.102.02-.117-.066-.072-.119-.161z"/>
        <path fill="#606161" d="M117.2.058c-.812-.022-1.718.1-2.238.723-.472.557-.486 1.375-.411 2.107.012.19.051.377.114.557.133.334.428.607.453.966.011-.254.098-.498.25-.702.152-.203.361-.356.601-.44.207-.057.421-.088.636-.091l1.993-.106c.102-.012.204-.005.303.02.135.064.264.14.387.225.132.054.276.074.419.056.142-.017.277-.071.392-.156.228-.174.417-.393.556-.643.169-.219.266-.484.278-.76-.014-.278-.253-.557-.522-.51-.078 0-.164.045-.226 0-.511-.378.07-1.182-.833-1.28-.718-.024-1.436-.013-2.152.034z"/>
        <path fill="#fff" d="M107.416 102.097c-3.772.679-9.076.835-12.9 1.208-6.116.615-12.732-1.578-18.867-1.161-.278-4.175-.033-9.986.49-11.75.614-2.157 1.853-4.175 3.655-5.489.339 0 1.264-.77 1.603-.94.604-.27 1.223-.501 1.855-.694 1.126-.361 2.272-.658 3.433-.887 2.582-.537 5.637.039 8.275.156 1.618.066 3.288.144 4.726.862 1.292.64 2.296 1.726 3.118 2.9 1.513 2.143 4.181 10.465 4.612 15.795z"/>
        <path fill="url(#paint9_linear)" d="M86.9 81.92c-.227.556-.52 1.112-.508 1.725.045.633.321 1.227.776 1.67.445.486.996.863 1.611 1.101s1.276.33 1.933.27c.655-.074 1.278-.323 1.804-.721.526-.398.936-.93 1.187-1.54.087-.215.135-.443.139-.674-.023-.297-.09-.589-.198-.866-.4-1.24-.57-2.542-.503-3.844.045-.81.117-1.778-.525-2.273-.198-.139-.42-.239-.653-.295-1.134-.323-2.336-.323-3.47 0-1.284.364-.925 1.054-.93 2.14-.009 1.134-.234 2.256-.662 3.306z"/>
        <path fill="url(#paint10_linear)" d="M89.709 81.095c.834.343 1.86.312 2.501-.297.643-.61.754-1.52.834-2.377l.12-1.178c.017-.084.008-.173-.025-.253-.043-.053-.097-.096-.159-.124-.062-.03-.129-.044-.197-.043-1.015-.113-2.038-.14-3.058-.078-.678.042-1.648 0-1.998.713-.64 1.336.842 3.156 1.982 3.637z"/>
        <path fill="url(#paint11_linear)" d="M83.71 74.09c.403 1.002.966 1.932 1.667 2.753 1.724 1.89 4.595 2.524 7.053 1.817 2.457-.706 4.478-2.621 5.59-4.92 1.112-2.3 1.415-4.946 1.148-7.492-.15-1.392-.487-2.845-1.357-3.958-.714-.864-1.647-1.518-2.702-1.895-1.89-.73-3.976-.781-5.9-.143-1.924.638-3.567 1.925-4.649 3.641-2.049 3.256-2.404 6.685-.85 10.198z"/>
        <path fill="url(#paint12_linear)" d="M81.38 69.985c-.123.178-.205.38-.24.594-.036.213-.024.431.034.639.122.415.33.8.612 1.127.08.127.185.236.31.32.124.084.265.141.413.167.143-.007.283-.049.407-.122s.229-.175.304-.298c.9-1.236-.684-3.933-1.84-2.427z"/>
        <path fill="url(#paint13_linear)" d="M99.573 69.122c.214-.008.425.043.61.148.186.105.339.26.441.448.196.382.237.826.114 1.238-.127.41-.336.788-.614 1.113-.236.328-.56.58-.934.73-.188.069-.393.077-.587.024-.193-.052-.365-.164-.492-.32-.083-.133-.141-.28-.172-.434-.247-.999.417-2.836 1.634-2.947z"/>
        <path fill="#606161" d="M84.171 75.568c.15.508.367.993.648 1.442.536.801 1.39 1.347 2.246 1.775.458.238.941.425 1.44.557.705.147 1.426.207 2.146.178 1.529-.014 3.058-.103 4.584-.203.335.008.667-.071.964-.228.256-.193.46-.448.592-.74.861-1.499 1.396-3.162 1.57-4.882.016-.604.061-1.207.137-1.806.158-.886.584-1.754.462-2.644-.384.1-.593.5-.751.862-.32.738-.62 1.484-.978 2.202-.205.447-.477.86-.807 1.224-.809.835-2.037 1.114-3.2 1.203-.886.06-1.776.074-2.665.044-1.39-.028-2.89-.1-4.039-.904-1.39-.98-1.882-2.928-3.336-3.8-.158.28.084.73.106 1.028.039.556.083 1.088.164 1.628.151 1.04.391 2.065.717 3.064z"/>
        <path fill="url(#paint14_linear)" d="M84.171 75.568c.15.508.367.993.648 1.442.536.801 1.39 1.347 2.246 1.775.458.238.941.425 1.44.557.705.147 1.426.207 2.146.178 1.529-.014 3.058-.103 4.584-.203.335.008.667-.071.964-.228.256-.193.46-.448.592-.74.861-1.499 1.396-3.162 1.57-4.882.016-.604.061-1.207.137-1.806.158-.886.584-1.754.462-2.644-.384.1-.593.5-.751.862-.32.738-.62 1.484-.978 2.202-.205.447-.477.86-.807 1.224-.809.835-2.037 1.114-3.2 1.203-.886.06-1.776.074-2.665.044-1.39-.028-2.89-.1-4.039-.904-1.39-.98-1.882-2.928-3.336-3.8-.158.28.084.73.106 1.028.039.556.083 1.088.164 1.628.151 1.04.391 2.065.717 3.064z"/>
        <path fill="url(#paint15_linear)" d="M91.993 75.618l-1.818-.062c-.28-.028-.563-.002-.834.078-.135.041-.256.12-.349.227-.093.106-.154.237-.176.377.002.228.081.448.225.624.072.12.167.226.278.311.234.125.5.174.762.142l3.269-.07c.088.006.176-.012.256-.052.077-.055.132-.136.155-.228.077-.233.084-.484.022-.72-.063-.238-.193-.452-.375-.616-.344-.262-.984.002-1.415-.011z"/>
        <path fill="#606161" d="M83.287 70.517c.328-.086.361-.534.342-.874-.1-1.72.272-3.434 1.075-4.957.587.535 1.504.231 2.255-.028 3.205-1.113 6.7-.745 10.074-.448.118-.017.24.008.34.07.103.064.179.161.216.275.79 1.647 1.222 3.443 1.264 5.269.279-.223.898-.398 1.087-.662.134-.184.114-.696.212-.941.278-.68.861-1.175 1.028-1.915.311-1.392-.917-2.733-.7-4.13.103-.67.528-1.244.734-1.89.145-.465.178-.958.094-1.438-.083-.48-.279-.934-.573-1.323-.4-.517-1.111-.916-1.698-.637-.195.089-.353.245-.556.34-.85.417-1.726-.438-2.569-.869-1.317-.676-2.957-.278-4.22.495-.397.245-.814.54-1.28.52-.291-.04-.573-.128-.835-.26-1.776-.705-3.919-.11-5.267 1.243-1.348 1.353-1.946 3.34-1.835 5.258.04.668.156 1.358-.061 1.99-.356 1.046-.664 2.594-.236 3.685.1.258.895 1.28 1.109 1.227z"/>
        <path fill="url(#paint16_linear)" d="M83.287 70.517c.328-.086.361-.534.342-.874-.1-1.72.272-3.434 1.075-4.957.587.535 1.504.231 2.255-.028 3.205-1.113 6.7-.745 10.074-.448.118-.017.24.008.34.07.103.064.179.161.216.275.79 1.647 1.222 3.443 1.264 5.269.279-.223.898-.398 1.087-.662.134-.184.114-.696.212-.941.278-.68.861-1.175 1.028-1.915.311-1.392-.917-2.733-.7-4.13.103-.67.528-1.244.734-1.89.145-.465.178-.958.094-1.438-.083-.48-.279-.934-.573-1.323-.4-.517-1.111-.916-1.698-.637-.195.089-.353.245-.556.34-.85.417-1.726-.438-2.569-.869-1.317-.676-2.957-.278-4.22.495-.397.245-.814.54-1.28.52-.291-.04-.573-.128-.835-.26-1.776-.705-3.919-.11-5.267 1.243-1.348 1.353-1.946 3.34-1.835 5.258.04.668.156 1.358-.061 1.99-.356 1.046-.664 2.594-.236 3.685.1.258.895 1.28 1.109 1.227z"/>
        <path fill="#fff" d="M111.852 89.918c.111-.2.268-.371.458-.498.192-.096.403-.145.617-.145.936-.064 1.877-.028 2.805.108.21.011.412.088.576.22.227.226.194.599.139.913-.656 3.84-1.934 7.547-3.784 10.974-.093.217-.247.404-.442.537-.194.109.025.156-.2.167-1.965.095-4.942 0-7.964.095.534-.515 1.557-1.164 1.999-1.804.728-1.054 1.145-2.454 1.726-3.601 1.213-2.403 2.572-4.73 4.07-6.966z"/>
        <path fill="url(#paint17_linear)" d="M113.055 87.33c.463-.876 1.209-1.569 2.116-1.965.728-.278 1.529-.292 2.31-.3l5.926-.045c.078-.01.157-.005.232.016.075.022.145.059.205.11.152.172.033.442-.109.626-1.206 1.564-3.477 1.686-5.256 2.546-1.026.496-1.91 1.255-2.958 1.704-.773.33-2.243.628-2.91-.106-.668-.735.052-1.895.444-2.586z"/>
    </g>
    <defs>
        <linearGradient id="paint0_linear" x1="157.613" x2="109.245" y1="61.872" y2="62.255" gradientUnits="userSpaceOnUse">
            <stop stop-color="#fff" stop-opacity="0"/>
            <stop offset=".95" stop-color="#fff"/>
        </linearGradient>
        <linearGradient id="paint1_linear" x1="4464.52" x2="4704.7" y1="9477.52" y2="2199.52" gradientUnits="userSpaceOnUse">
            <stop stop-color="#fff" stop-opacity="0"/>
            <stop offset=".95" stop-color="#fff"/>
        </linearGradient>
        <linearGradient id="paint2_linear" x1="117.82" x2="126.426" y1="32.999" y2="29.414" gradientUnits="userSpaceOnUse">
            <stop stop-color="#010101" stop-opacity="0"/>
            <stop offset=".95" stop-color="#010101"/>
        </linearGradient>
        <linearGradient id="paint3_linear" x1="-9818.94" x2="-9316.05" y1="1228.91" y2="1037.38" gradientUnits="userSpaceOnUse">
            <stop stop-color="#010101" stop-opacity="0"/>
            <stop offset=".95" stop-color="#010101"/>
        </linearGradient>
        <linearGradient id="paint4_linear" x1="-7212.25" x2="-7552.33" y1="1996.21" y2="1931.06" gradientUnits="userSpaceOnUse">
            <stop stop-color="#010101" stop-opacity="0"/>
            <stop offset=".95" stop-color="#010101"/>
        </linearGradient>
        <linearGradient id="paint5_linear" x1="-6391.17" x2="-6583.82" y1="786.894" y2="774.16" gradientUnits="userSpaceOnUse">
            <stop stop-color="#010101" stop-opacity="0"/>
            <stop offset=".95" stop-color="#010101"/>
        </linearGradient>
        <linearGradient id="paint6_linear" x1="-12752.7" x2="-13478.7" y1="639.98" y2="436.516" gradientUnits="userSpaceOnUse">
            <stop stop-color="#010101" stop-opacity="0"/>
            <stop offset=".95" stop-color="#010101"/>
        </linearGradient>
        <linearGradient id="paint7_linear" x1="-2450.71" x2="-2327.41" y1="121.377" y2="32.768" gradientUnits="userSpaceOnUse">
            <stop stop-color="#010101" stop-opacity="0"/>
            <stop offset=".95" stop-color="#010101"/>
        </linearGradient>
        <linearGradient id="paint8_linear" x1="-446.899" x2="-443.732" y1="17.255" y2="16.994" gradientUnits="userSpaceOnUse">
            <stop stop-color="#010101" stop-opacity="0"/>
            <stop offset=".95" stop-color="#010101"/>
        </linearGradient>
        <linearGradient id="paint9_linear" x1="86.398" x2="93.847" y1="81.457" y2="81.457" gradientUnits="userSpaceOnUse">
            <stop stop-color="#E5C6D6"/>
            <stop offset=".42" stop-color="#EAD4D0"/>
            <stop offset="1" stop-color="#F0E9CB"/>
        </linearGradient>
        <linearGradient id="paint10_linear" x1="1916.9" x2="1966.78" y1="1435.9" y2="1259.71" gradientUnits="userSpaceOnUse">
            <stop stop-color="#010101" stop-opacity="0"/>
            <stop offset=".95" stop-color="#010101"/>
        </linearGradient>
        <linearGradient id="paint11_linear" x1="5087.03" x2="6068.21" y1="4882.66" y2="4882.66" gradientUnits="userSpaceOnUse">
            <stop stop-color="#E5C6D6"/>
            <stop offset=".42" stop-color="#EAD4D0"/>
            <stop offset="1" stop-color="#F0E9CB"/>
        </linearGradient>
        <linearGradient id="paint12_linear" x1="784.421" x2="804.534" y1="920.806" y2="920.806" gradientUnits="userSpaceOnUse">
            <stop stop-color="#E5C6D6"/>
            <stop offset=".42" stop-color="#EAD4D0"/>
            <stop offset="1" stop-color="#F0E9CB"/>
        </linearGradient>
        <linearGradient id="paint13_linear" x1="1141.87" x2="1172.5" y1="1032.55" y2="1032.55" gradientUnits="userSpaceOnUse">
            <stop stop-color="#E5C6D6"/>
            <stop offset=".42" stop-color="#EAD4D0"/>
            <stop offset="1" stop-color="#F0E9CB"/>
        </linearGradient>
        <linearGradient id="paint14_linear" x1="4908.32" x2="5812.43" y1="2903.1" y2="2903.1" gradientUnits="userSpaceOnUse">
            <stop stop-color="#010101" stop-opacity="0"/>
            <stop offset=".95" stop-color="#010101"/>
        </linearGradient>
        <linearGradient id="paint15_linear" x1="1716.02" x2="1806.33" y1="578.076" y2="578.076" gradientUnits="userSpaceOnUse">
            <stop stop-color="#E5C6D6"/>
            <stop offset=".42" stop-color="#EAD4D0"/>
            <stop offset="1" stop-color="#F0E9CB"/>
        </linearGradient>
        <linearGradient id="paint16_linear" x1="5902.03" x2="7253.29" y1="3393.67" y2="3393.67" gradientUnits="userSpaceOnUse">
            <stop stop-color="#010101" stop-opacity="0"/>
            <stop offset=".95" stop-color="#010101"/>
        </linearGradient>
        <linearGradient id="paint17_linear" x1="4853.22" x2="5335.28" y1="1787.86" y2="1787.86" gradientUnits="userSpaceOnUse">
            <stop stop-color="#E5C6D6"/>
            <stop offset=".42" stop-color="#EAD4D0"/>
            <stop offset="1" stop-color="#F0E9CB"/>
        </linearGradient>
        <clipPath id="clip0">
            <path fill="#fff" d="M0 0H179V141H0z"/>
        </clipPath>
    </defs>
</svg>
